<svg xmlns="http://www.w3.org/2000/svg" viewBox="0 0 21 21" height="21" width="21">
	<title>marker.svg</title>
	<rect fill="none" x="0" y="0" width="21" height="21"></rect>
	<path id="outline" fill="#404040" transform="translate(3 3)" d="M7.5,0C5.0676,0,2.2297,1.4865,2.2297,5.2703
	C2.2297,7.8378,6.2838,13.5135,7.5,15c1.0811-1.4865,5.2703-7.027,5.2703-9.7297C12.7703,1.4865,9.9324,0,7.5,0z" style="stroke-linejoin:round;stroke-miterlimit:4px;" stroke="#404040" stroke-width="2" opacity=".25"></path>
	<path id="shape" fill="#808080" transform="translate(3 3)" d="M7.5,0C5.0676,0,2.2297,1.4865,2.2297,5.2703
	C2.2297,7.8378,6.2838,13.5135,7.5,15c1.0811-1.4865,5.2703-7.027,5.2703-9.7297C12.7703,1.4865,9.9324,0,7.5,0z"></path>
</svg>
